<svg width="14" height="14" viewBox="0 0 14 14" fill="none" xmlns="http://www.w3.org/2000/svg">
<path d="M7 0C3.1401 0 0 3.14009 0 7C0 10.8599 3.1401 14 7 14C10.8599 14 14 10.8599 14 7C14 3.14009 10.8599 0 7 0ZM7 13.2075C3.57726 13.2075 0.792453 10.4227 0.792453 7C0.792453 3.57726 3.57726 0.792453 7 0.792453C10.4227 0.792453 13.2075 3.57726 13.2075 7C13.2075 10.4227 10.4227 13.2075 7 13.2075ZM9.14821 5.41245L7.56 7L9.14821 8.58755C9.30274 8.74142 9.30274 8.99236 9.14821 9.14755C9.07095 9.22481 8.96925 9.26377 8.86821 9.26377C8.76717 9.26377 8.66547 9.22481 8.58821 9.14755L7 7.56L5.41245 9.14755C5.33519 9.22481 5.23349 9.26377 5.13245 9.26377C5.03076 9.26377 4.92972 9.22481 4.85245 9.14755C4.69793 8.99302 4.69793 8.74208 4.85245 8.58755L6.44 7L4.85179 5.41245C4.69726 5.25858 4.69726 5.00764 4.85179 4.85245C5.00632 4.69726 5.25727 4.69792 5.41245 4.85245L7 6.44L8.58755 4.85245C8.74274 4.69792 8.99368 4.69859 9.14821 4.85245C9.30274 5.00698 9.30274 5.25792 9.14821 5.41245Z" fill="#8493A8"/>
</svg>
