<svg width="24" height="24" viewBox="0 0 24 24" fill="none" xmlns="http://www.w3.org/2000/svg">
<path d="M20.3333 22H3.66667C2.748 22 2 21.2527 2 20.3333V3.66667C2 2.74733 2.748 2 3.66667 2H20.3333C21.252 2 22 2.74733 22 3.66667V20.3333C22 21.2527 21.252 22 20.3333 22ZM3.66667 2.66667C3.11533 2.66667 2.66667 3.11533 2.66667 3.66667V20.3333C2.66667 20.8847 3.11533 21.3333 3.66667 21.3333H20.3333C20.8847 21.3333 21.3333 20.8847 21.3333 20.3333V3.66667C21.3333 3.11533 20.8847 2.66667 20.3333 2.66667H3.66667Z" fill="#54657E" stroke="#54657E" stroke-width="0.9"/>
<path d="M21.6667 6.66667H2.33333C2.14933 6.66667 2 6.51733 2 6.33333C2 6.14933 2.14933 6 2.33333 6H21.6667C21.8507 6 22 6.14933 22 6.33333C22 6.51733 21.8507 6.66667 21.6667 6.66667Z" fill="#54657E" stroke="#54657E" stroke-width="0.9"/>
<path d="M17.6657 9.99998H6.33236C6.14836 9.99998 5.99902 9.85065 5.99902 9.66665C5.99902 9.48265 6.14836 9.33331 6.33236 9.33331H17.6657C17.8497 9.33331 17.999 9.48265 17.999 9.66665C17.999 9.85065 17.8497 9.99998 17.6657 9.99998Z" fill="#54657E" stroke="#54657E" stroke-width="0.9"/>
<path d="M17.6657 13.3334H6.33236C6.14836 13.3334 5.99902 13.184 5.99902 13C5.99902 12.816 6.14836 12.6667 6.33236 12.6667H17.6657C17.8497 12.6667 17.999 12.816 17.999 13C17.999 13.184 17.8497 13.3334 17.6657 13.3334Z" fill="#54657E" stroke="#54657E" stroke-width="0.9"/>
<path d="M17.6657 16.6667H6.33236C6.14836 16.6667 5.99902 16.5173 5.99902 16.3333C5.99902 16.1493 6.14836 16 6.33236 16H17.6657C17.8497 16 17.999 16.1493 17.999 16.3333C17.999 16.5173 17.8497 16.6667 17.6657 16.6667Z" fill="#54657E" stroke="#54657E" stroke-width="0.9"/>
</svg>
